<?xml version="1.0" standalone="no"?>
<!DOCTYPE svg PUBLIC "-//W3C//DTD SVG 20010904//EN"
 "http://www.w3.org/TR/2001/REC-SVG-20010904/DTD/svg10.dtd">
<svg version="1.0" xmlns="http://www.w3.org/2000/svg"
 width="150.000000pt" height="150.000000pt" viewBox="0 0 150.000000 150.000000"
 preserveAspectRatio="xMidYMid meet">
<metadata>
Created by potrace 1.15, written by Peter Selinger 2001-2017
</metadata>
<g transform="translate(0.000000,150.000000) scale(0.100000,-0.100000)"
fill="#000000" stroke="none">
<path d="M309 1096 c-122 -26 -214 -121 -254 -260 -24 -82 -17 -248 14 -328
26 -68 94 -147 156 -181 48 -27 125 -47 183 -47 31 0 45 -9 98 -60 l61 -61 69
3 69 3 -70 74 c-38 41 -65 76 -58 78 6 2 32 20 57 40 93 72 139 186 139 338
-1 223 -99 365 -281 404 -65 14 -110 13 -183 -3z m202 -109 c91 -48 139 -149
139 -292 0 -224 -122 -346 -309 -309 -47 10 -124 84 -152 146 -20 45 -24 69
-24 163 0 100 3 116 29 172 43 94 116 142 217 143 40 0 69 -7 100 -23z"/>
<path d="M856 1054 c-16 -15 -15 -462 1 -472 8 -5 395 -8 459 -3 16 1 15 481
0 482 -6 0 -21 2 -33 3 -13 2 -23 0 -23 -4 0 -3 -9 -6 -20 -6 -11 0 -20 3 -20
6 0 3 -19 5 -42 3 -24 -2 -61 -3 -83 -2 -77 2 -120 1 -152 -4 -18 -2 -33 -1
-33 2 0 11 -42 7 -54 -5z"/>
<path d="M860 425 c0 -118 1 -125 20 -125 18 0 20 7 20 55 l0 55 50 0 c43 0
50 3 50 20 0 17 -7 20 -50 20 -49 0 -50 1 -50 30 0 30 1 30 55 30 48 0 55 2
55 20 0 18 -7 20 -75 20 l-75 0 0 -125z"/>
<path d="M1230 482 c0 -4 11 -23 25 -42 14 -19 25 -38 25 -42 0 -5 -14 -27
-31 -51 -30 -41 -30 -42 -9 -45 20 -3 27 3 62 52 5 7 18 -1 34 -21 14 -18 34
-33 45 -33 25 0 24 6 -11 50 -16 21 -30 41 -30 45 0 4 14 24 30 45 36 45 37
50 8 50 -14 0 -31 -12 -44 -31 l-22 -31 -23 31 c-21 28 -59 43 -59 23z"/>
</g>
</svg>
